<svg width="500" height="500" xmlns="http://www.w3.org/2000/svg" stroke="null" style="vector-effect: non-scaling-stroke;" data-name="Layer 3">
 <defs stroke="null" style="vector-effect: non-scaling-stroke;" fill="#fd1418">
  <filter stroke="null" style="vector-effect: non-scaling-stroke;" height="200%" width="200%" y="-50%" x="-50%" id="svg_15_blur">
   <feGaussianBlur stroke="null" style="vector-effect: non-scaling-stroke;" stdDeviation="10" in="SourceGraphic"/>
  </filter>
  <filter height="200%" width="200%" y="-50%" x="-50%" id="svg_37_blur">
   <feGaussianBlur stdDeviation="10" in="SourceGraphic"/>
  </filter>
 </defs>
 <title stroke="null" style="vector-effect: non-scaling-stroke;"/>
 <g stroke="null">
  <title stroke="null">Layer 1</title>
  <g stroke="null" id="svg_38">
   <g stroke="null" filter="url(#svg_37_blur)" opacity="0.5" fill="#14fdce" id="svg_37">
    <path stroke="null" id="svg_30" fill="#14fdce" d="m224.92505,262.67991a29.35572,28.74581 0 0 1 -2.06158,-24.56615l-24.07111,-0.76769a52.26538,51.17949 0 0 0 -1.19049,10.91829a52.8461,51.74815 0 0 0 36.67287,49.27447l11.3532,-20.81299a29.38476,28.77425 0 0 1 -20.7029,-14.04593z" class="cls-1"/>
    <path stroke="null" id="svg_31" fill="#14fdce" d="m275.91283,262.67991a29.38476,28.77425 0 0 1 -20.7029,14.04593l11.3532,20.81299a52.87514,51.77658 0 0 0 36.67287,-49.27447a52.26538,51.17949 0 0 0 -1.19049,-10.91829l-24.07111,0.76769a29.35572,28.74581 0 0 1 -2.06158,24.56615z" class="cls-1"/>
    <path stroke="null" id="svg_32" fill="#14fdce" d="m250.41894,196.54464a52.67189,51.57755 0 0 0 -35.48238,13.4204l12.71791,20.01687a29.44283,28.83111 0 0 1 45.52895,0l12.71791,-20.01687a52.67189,51.57755 0 0 0 -35.48238,-13.4204z" class="cls-1"/>
    <path stroke="null" id="svg_33" fill="#14fdce" d="m273.18342,234.24686a4.35545,4.26496 0 0 1 -3.36821,-1.56382a25.08738,24.56615 0 0 0 -38.79252,0a4.44256,4.35026 0 0 1 -3.65858,1.56382a4.38448,4.29339 0 0 1 -3.39725,-2.01875l-40.65085,-63.9175a4.35545,4.26496 0 0 1 1.07434,-5.65818a109.58307,107.30633 0 0 1 132.05719,0a4.35545,4.26496 0 0 1 1.07434,5.65818l-40.65085,63.9175a4.38448,4.29339 0 0 1 -3.39725,2.01875l-0.29036,0zm-80.31446,-67.07356l35.56949,55.95624a33.76924,33.06764 0 0 1 43.96099,0l35.56949,-55.95624a100.84314,98.74798 0 0 0 -115.09998,0z" class="cls-3"/>
    <path stroke="null" id="svg_34" fill="#14fdce" d="m209.41966,347.4104a4.41352,4.32182 0 0 1 -1.71314,-0.3412c-22.09664,-9.15544 -40.1282,-24.76519 -52.17827,-45.15168s-16.81203,-43.50257 -13.85032,-66.81767a4.41352,4.32182 0 0 1 4.47159,-3.75316l76.85914,2.50211a4.38448,4.29339 0 0 1 3.9199,5.77191a25.11642,24.59459 0 0 0 19.39626,32.89704a4.38448,4.29339 0 0 1 3.13592,6.22684l-36.20829,66.4196a4.38448,4.29339 0 0 1 -3.83279,2.24621zm-59.49542,-107.39163c-1.77122,20.1306 2.75845,39.97687 13.15345,57.63379a99.97205,97.89499 0 0 0 44.39653,39.97687l31.70766,-58.14559a33.85635,33.15294 0 0 1 -22.00953,-37.27573l-67.24812,-2.18934z" class="cls-3"/>
    <path stroke="null" id="svg_35" fill="#14fdce" d="m291.41823,347.4104a4.35545,4.26496 0 0 1 -3.83279,-2.24621l-36.20829,-66.4196a4.38448,4.29339 0 0 1 3.13592,-6.22684a25.11642,24.59459 0 0 0 19.39626,-32.89704a4.35545,4.26496 0 0 1 3.9199,-5.77191l76.85914,-2.50211a4.41352,4.32182 0 0 1 4.47159,3.75316c2.9617,23.3151 -1.82929,46.40274 -13.87936,66.81767a108.65391,106.39647 0 0 1 -52.14923,45.15168a4.41352,4.32182 0 0 1 -1.71314,0.3412zm-29.76223,-67.92656l31.70766,58.14559a99.97205,97.89499 0 0 0 44.39653,-39.97687l0,0c10.395,-17.65692 14.92467,-37.50319 13.15345,-57.63379l-67.27716,2.18934a33.79828,33.09607 0 0 1 -21.98049,37.27573z" class="cls-3"/>
    <path stroke="null" id="svg_36" fill="#14fdce" d="m250.41894,281.41729a33.88539,33.18137 0 0 1 -33.85635,-33.15294c0,-18.25402 15.186,-33.1245 33.85635,-33.1245s33.85635,14.87048 33.85635,33.1245a33.88539,33.18137 0 0 1 -33.85635,33.15294zm0,-57.74752a25.14545,24.62302 0 1 0 25.14545,24.59459a25.17449,24.65145 0 0 0 -25.14545,-24.59459z" class="cls-2"/>
   </g>
   <path stroke="null" opacity="0.5" filter="url(#svg_15_blur)" id="svg_15" fill="#14fdce" d="m250,97.6176c-83.99,0 -152.08763,68.22306 -152.08763,152.36776s68.09763,152.39703 152.08763,152.39703s152.08763,-68.22306 152.08763,-152.39703s-68.06842,-152.36776 -152.08763,-152.36776zm0,281.67256c-71.28195,0 -129.03786,-57.89155 -129.03786,-129.3048s57.75591,-129.27553 129.03786,-129.27553s129.06707,57.86229 129.06707,129.27553s-57.78512,129.3048 -129.06707,129.3048z" class="cls-1"/>
   <path stroke="null" id="svg_1" fill="#7cbdbd" d="m249.99999,103.20186c-80.28866,0 -145.38531,65.09665 -145.38531,145.38531s65.09665,145.41323 145.38531,145.41323s145.38531,-65.09665 145.38531,-145.41323s-65.06872,-145.38531 -145.38531,-145.38531zm0,268.76454c-68.14063,0 -123.35131,-55.2386 -123.35131,-123.37923s55.21067,-123.35131 123.35131,-123.35131s123.37923,55.21067 123.37923,123.35131s-55.2386,123.37923 -123.37923,123.37923z" class="cls-1"/>
   <path stroke="null" id="svg_2" fill="#7cbdbd" d="m247.48654,396.56962a148.42929,148.42929 0 1 1 97.54723,-260.16318a4.18897,4.18897 0 1 1 -5.52944,6.31139a139.77208,139.77208 0 1 0 29.68586,36.27651a4.18897,4.18897 0 1 1 7.28881,-4.16105a148.34551,148.34551 0 0 1 -128.99246,221.73633z" class="cls-2"/>
   <path stroke="null" id="svg_8" fill="#7cbdbd" d="m225.06164,262.7459a28.23368,28.23368 0 0 1 -1.98278,-24.12849l-23.15106,-0.75402a50.26768,50.26768 0 0 0 -1.14499,10.72377a50.82621,50.82621 0 0 0 35.27116,48.39661l10.91926,-20.44219a28.26161,28.26161 0 0 1 -19.91159,-13.79569z" class="cls-1"/>
   <path stroke="null" id="svg_9" fill="#7cbdbd" d="m274.10055,262.7459a28.26161,28.26161 0 0 1 -19.91159,13.79569l10.91926,20.44219a50.85414,50.85414 0 0 0 35.27116,-48.39661a50.26768,50.26768 0 0 0 -1.14499,-10.72377l-23.15106,0.75402a28.23368,28.23368 0 0 1 -1.98278,24.12849z" class="cls-1"/>
   <path stroke="null" id="svg_10" fill="#7cbdbd" d="m249.5811,197.78888a50.65865,50.65865 0 0 0 -34.12617,13.1813l12.2318,19.66025a28.31746,28.31746 0 0 1 43.78874,0l12.2318,-19.66025a50.65865,50.65865 0 0 0 -34.12617,-13.1813z" class="cls-1"/>
   <path stroke="null" id="svg_11" fill="#7cbdbd" d="m271.47546,234.81941a4.18897,4.18897 0 0 1 -3.23947,-1.53596a24.12849,24.12849 0 0 0 -37.30979,0a4.27275,4.27275 0 0 1 -3.51874,1.53596a4.2169,4.2169 0 0 1 -3.2674,-1.98278l-39.09709,-62.77875a4.18897,4.18897 0 0 1 1.03328,-5.55737a105.39457,105.39457 0 0 1 127.00968,0a4.18897,4.18897 0 0 1 1.03328,5.55737l-39.09709,62.77875a4.2169,4.2169 0 0 1 -3.2674,1.98278l-0.27926,0zm-77.24467,-65.87859l34.20995,54.95933a32.47851,32.47851 0 0 1 42.28071,0l34.20995,-54.95933a96.9887,96.9887 0 0 0 -110.70061,0z" class="cls-3"/>
   <path stroke="null" id="svg_12" fill="#7cbdbd" d="m210.14889,345.96684a4.24483,4.24483 0 0 1 -1.64766,-0.33512c-21.25206,-8.99233 -38.59441,-24.32397 -50.1839,-44.34727s-16.16944,-42.72753 -13.32094,-65.62725a4.24483,4.24483 0 0 1 4.30068,-3.6863l73.92142,2.45753a4.2169,4.2169 0 0 1 3.77008,5.66908a24.15641,24.15641 0 0 0 18.6549,32.31095a4.2169,4.2169 0 0 1 3.01606,6.1159l-34.82433,65.23628a4.2169,4.2169 0 0 1 -3.6863,2.20619zm-57.22138,-105.47835c-1.70352,19.77195 2.65302,39.26464 12.6507,56.60699a96.1509,96.1509 0 0 0 42.6996,39.26464l30.49573,-57.10967a32.56229,32.56229 0 0 1 -21.16828,-36.61163l-64.67775,-2.15034z" class="cls-3"/>
   <path stroke="null" id="svg_13" fill="#7cbdbd" d="m289.0133,345.96684a4.18897,4.18897 0 0 1 -3.6863,-2.20619l-34.82433,-65.23628a4.2169,4.2169 0 0 1 3.01606,-6.1159a24.15641,24.15641 0 0 0 18.6549,-32.31095a4.18897,4.18897 0 0 1 3.77008,-5.66908l73.92142,-2.45753a4.24483,4.24483 0 0 1 4.30068,3.6863c2.8485,22.89972 -1.75937,45.57603 -13.34886,65.62725a104.50092,104.50092 0 0 1 -50.15598,44.34727a4.24483,4.24483 0 0 1 -1.64766,0.33512zm-28.62465,-66.71638l30.49573,57.10967a96.1509,96.1509 0 0 0 42.6996,-39.26464l0,0c9.99768,-17.34235 14.35422,-36.83504 12.6507,-56.60699l-64.70568,2.15034a32.50643,32.50643 0 0 1 -21.14035,36.61163z" class="cls-3"/>
   <path stroke="null" id="svg_14" fill="#7cbdbd" d="m249.5811,281.14946a32.59021,32.59021 0 0 1 -32.56229,-32.56229c0,-17.92881 14.60555,-32.53436 32.56229,-32.53436s32.56229,14.60555 32.56229,32.53436a32.59021,32.59021 0 0 1 -32.56229,32.56229zm0,-56.7187a24.18434,24.18434 0 1 0 24.18434,24.15641a24.21227,24.21227 0 0 0 -24.18434,-24.15641z" class="cls-2"/>
   <path stroke="null" id="svg_16" fill="#7cbdbd" d="m225.06164,262.7459a28.23368,28.23368 0 0 1 -1.98278,-24.12849l-23.15106,-0.75402a50.26768,50.26768 0 0 0 -1.14499,10.72377a50.82621,50.82621 0 0 0 35.27116,48.39661l10.91926,-20.44219a28.26161,28.26161 0 0 1 -19.91159,-13.79569z" class="cls-1"/>
   <path stroke="null" id="svg_17" fill="#7cbdbd" d="m274.10055,262.7459a28.26161,28.26161 0 0 1 -19.91159,13.79569l10.91926,20.44219a50.85414,50.85414 0 0 0 35.27116,-48.39661a50.26768,50.26768 0 0 0 -1.14499,-10.72377l-23.15106,0.75402a28.23368,28.23368 0 0 1 -1.98278,24.12849z" class="cls-1"/>
   <path stroke="null" id="svg_18" fill="#7cbdbd" d="m249.5811,197.78888a50.65865,50.65865 0 0 0 -34.12617,13.1813l12.2318,19.66025a28.31746,28.31746 0 0 1 43.78874,0l12.2318,-19.66025a50.65865,50.65865 0 0 0 -34.12617,-13.1813z" class="cls-1"/>
   <path stroke="null" id="svg_19" fill="#7cbdbd" d="m271.47546,234.81941a4.18897,4.18897 0 0 1 -3.23947,-1.53596a24.12849,24.12849 0 0 0 -37.30979,0a4.27275,4.27275 0 0 1 -3.51874,1.53596a4.2169,4.2169 0 0 1 -3.2674,-1.98278l-39.09709,-62.77875a4.18897,4.18897 0 0 1 1.03328,-5.55737a105.39457,105.39457 0 0 1 127.00968,0a4.18897,4.18897 0 0 1 1.03328,5.55737l-39.09709,62.77875a4.2169,4.2169 0 0 1 -3.2674,1.98278l-0.27926,0zm-77.24467,-65.87859l34.20995,54.95933a32.47851,32.47851 0 0 1 42.28071,0l34.20995,-54.95933a96.9887,96.9887 0 0 0 -110.70061,0z" class="cls-3"/>
   <path stroke="null" id="svg_20" fill="#7cbdbd" d="m210.14889,345.96684a4.24483,4.24483 0 0 1 -1.64766,-0.33512c-21.25206,-8.99233 -38.59441,-24.32397 -50.1839,-44.34727s-16.16944,-42.72753 -13.32094,-65.62725a4.24483,4.24483 0 0 1 4.30068,-3.6863l73.92142,2.45753a4.2169,4.2169 0 0 1 3.77008,5.66908a24.15641,24.15641 0 0 0 18.6549,32.31095a4.2169,4.2169 0 0 1 3.01606,6.1159l-34.82433,65.23628a4.2169,4.2169 0 0 1 -3.6863,2.20619zm-57.22138,-105.47835c-1.70352,19.77195 2.65302,39.26464 12.6507,56.60699a96.1509,96.1509 0 0 0 42.6996,39.26464l30.49573,-57.10967a32.56229,32.56229 0 0 1 -21.16828,-36.61163l-64.67775,-2.15034z" class="cls-3"/>
   <path stroke="null" id="svg_21" fill="#7cbdbd" d="m289.0133,345.96684a4.18897,4.18897 0 0 1 -3.6863,-2.20619l-34.82433,-65.23628a4.2169,4.2169 0 0 1 3.01606,-6.1159a24.15641,24.15641 0 0 0 18.6549,-32.31095a4.18897,4.18897 0 0 1 3.77008,-5.66908l73.92142,-2.45753a4.24483,4.24483 0 0 1 4.30068,3.6863c2.8485,22.89972 -1.75937,45.57603 -13.34886,65.62725a104.50092,104.50092 0 0 1 -50.15598,44.34727a4.24483,4.24483 0 0 1 -1.64766,0.33512zm-28.62465,-66.71638l30.49573,57.10967a96.1509,96.1509 0 0 0 42.6996,-39.26464l0,0c9.99768,-17.34235 14.35422,-36.83504 12.6507,-56.60699l-64.70568,2.15034a32.50643,32.50643 0 0 1 -21.14035,36.61163z" class="cls-3"/>
   <path stroke="null" id="svg_22" fill="#7cbdbd" d="m249.5811,281.14946a32.59021,32.59021 0 0 1 -32.56229,-32.56229c0,-17.92881 14.60555,-32.53436 32.56229,-32.53436s32.56229,14.60555 32.56229,32.53436a32.59021,32.59021 0 0 1 -32.56229,32.56229zm0,-56.7187a24.18434,24.18434 0 1 0 24.18434,24.15641a24.21227,24.21227 0 0 0 -24.18434,-24.15641z" class="cls-2"/>
   <path stroke="null" id="svg_23" fill="#7cbdbd" d="m225.06164,262.7459a28.23368,28.23368 0 0 1 -1.98278,-24.12849l-23.15106,-0.75402a50.26768,50.26768 0 0 0 -1.14499,10.72377a50.82621,50.82621 0 0 0 35.27116,48.39661l10.91926,-20.44219a28.26161,28.26161 0 0 1 -19.91159,-13.79569z" class="cls-1"/>
   <path stroke="null" id="svg_24" fill="#7cbdbd" d="m274.10055,262.7459a28.26161,28.26161 0 0 1 -19.91159,13.79569l10.91926,20.44219a50.85414,50.85414 0 0 0 35.27116,-48.39661a50.26768,50.26768 0 0 0 -1.14499,-10.72377l-23.15106,0.75402a28.23368,28.23368 0 0 1 -1.98278,24.12849z" class="cls-1"/>
   <path stroke="null" id="svg_25" fill="#7cbdbd" d="m249.5811,197.78888a50.65865,50.65865 0 0 0 -34.12617,13.1813l12.2318,19.66025a28.31746,28.31746 0 0 1 43.78874,0l12.2318,-19.66025a50.65865,50.65865 0 0 0 -34.12617,-13.1813z" class="cls-1"/>
   <path stroke="null" id="svg_26" fill="#7cbdbd" d="m271.47546,234.81941a4.18897,4.18897 0 0 1 -3.23947,-1.53596a24.12849,24.12849 0 0 0 -37.30979,0a4.27275,4.27275 0 0 1 -3.51874,1.53596a4.2169,4.2169 0 0 1 -3.2674,-1.98278l-39.09709,-62.77875a4.18897,4.18897 0 0 1 1.03328,-5.55737a105.39457,105.39457 0 0 1 127.00968,0a4.18897,4.18897 0 0 1 1.03328,5.55737l-39.09709,62.77875a4.2169,4.2169 0 0 1 -3.2674,1.98278l-0.27926,0zm-77.24467,-65.87859l34.20995,54.95933a32.47851,32.47851 0 0 1 42.28071,0l34.20995,-54.95933a96.9887,96.9887 0 0 0 -110.70061,0z" class="cls-3"/>
   <path stroke="null" id="svg_27" fill="#7cbdbd" d="m210.14889,345.96684a4.24483,4.24483 0 0 1 -1.64766,-0.33512c-21.25206,-8.99233 -38.59441,-24.32397 -50.1839,-44.34727s-16.16944,-42.72753 -13.32094,-65.62725a4.24483,4.24483 0 0 1 4.30068,-3.6863l73.92142,2.45753a4.2169,4.2169 0 0 1 3.77008,5.66908a24.15641,24.15641 0 0 0 18.6549,32.31095a4.2169,4.2169 0 0 1 3.01606,6.1159l-34.82433,65.23628a4.2169,4.2169 0 0 1 -3.6863,2.20619zm-57.22138,-105.47835c-1.70352,19.77195 2.65302,39.26464 12.6507,56.60699a96.1509,96.1509 0 0 0 42.6996,39.26464l30.49573,-57.10967a32.56229,32.56229 0 0 1 -21.16828,-36.61163l-64.67775,-2.15034z" class="cls-3"/>
   <path stroke="null" id="svg_28" fill="#7cbdbd" d="m289.0133,345.96684a4.18897,4.18897 0 0 1 -3.6863,-2.20619l-34.82433,-65.23628a4.2169,4.2169 0 0 1 3.01606,-6.1159a24.15641,24.15641 0 0 0 18.6549,-32.31095a4.18897,4.18897 0 0 1 3.77008,-5.66908l73.92142,-2.45753a4.24483,4.24483 0 0 1 4.30068,3.6863c2.8485,22.89972 -1.75937,45.57603 -13.34886,65.62725a104.50092,104.50092 0 0 1 -50.15598,44.34727a4.24483,4.24483 0 0 1 -1.64766,0.33512zm-28.62465,-66.71638l30.49573,57.10967a96.1509,96.1509 0 0 0 42.6996,-39.26464l0,0c9.99768,-17.34235 14.35422,-36.83504 12.6507,-56.60699l-64.70568,2.15034a32.50643,32.50643 0 0 1 -21.14035,36.61163z" class="cls-3"/>
   <path stroke="null" id="svg_29" fill="#7cbdbd" d="m249.5811,281.14946a32.59021,32.59021 0 0 1 -32.56229,-32.56229c0,-17.92881 14.60555,-32.53436 32.56229,-32.53436s32.56229,14.60555 32.56229,32.53436a32.59021,32.59021 0 0 1 -32.56229,32.56229zm0,-56.7187a24.18434,24.18434 0 1 0 24.18434,24.15641a24.21227,24.21227 0 0 0 -24.18434,-24.15641z" class="cls-2"/>
  </g>
 </g>
</svg>